<svg width="145" height="24" viewBox="0 0 145 24" fill="none" xmlns="http://www.w3.org/2000/svg">
<path d="M0.21875 6.3125C0.21875 4.85417 0.760417 3.59375 1.84375 2.53125C2.92708 1.44792 4.29167 0.90625 5.9375 0.90625C6.70833 0.90625 7.39583 1.02083 8 1.25C8.625 1.45833 9.10417 1.66667 9.4375 1.875C9.79167 2.08333 10 2.1875 10.0625 2.1875C10.1875 2.1875 10.3646 1.97917 10.5938 1.5625C10.8438 1.125 11.1146 0.90625 11.4062 0.90625C11.5521 0.90625 11.6771 0.96875 11.7812 1.09375C11.8854 1.19792 11.9375 1.33333 11.9375 1.5C11.9375 1.54167 11.9271 1.67708 11.9062 1.90625C11.8854 2.13542 11.8542 2.45833 11.8125 2.875C11.7917 3.27083 11.7812 3.69792 11.7812 4.15625C11.7812 4.61458 11.7917 5.04167 11.8125 5.4375C11.8542 5.83333 11.8854 6.14583 11.9062 6.375C11.9271 6.58333 11.9375 6.70833 11.9375 6.75C11.9375 7.0625 11.75 7.21875 11.375 7.21875H11.3438C11.0521 7.21875 10.8333 7.11458 10.6875 6.90625C10.5417 6.67708 10.3438 6.30208 10.0938 5.78125C9.86458 5.26042 9.54167 4.76042 9.125 4.28125C8.0625 3.09375 6.89583 2.5 5.625 2.5C4.75 2.5 4.01042 2.79167 3.40625 3.375C2.80208 3.95833 2.5 4.66667 2.5 5.5C2.5 6.64583 3.05208 7.61458 4.15625 8.40625C4.80208 8.88542 5.85417 9.30208 7.3125 9.65625C8.77083 10.0104 9.73958 10.2917 10.2188 10.5C11.4271 11.0208 12.3958 11.8021 13.125 12.8438C13.875 13.8646 14.25 15.0729 14.25 16.4688C14.25 18.3854 13.5729 20.0104 12.2188 21.3438C10.8646 22.6771 9.20833 23.3438 7.25 23.3438C5.33333 23.3438 3.70833 22.7604 2.375 21.5938C2.04167 21.3021 1.71875 21.1562 1.40625 21.1562C1.30208 21.1562 1.15625 21.1771 0.96875 21.2188C0.78125 21.2396 0.645833 21.25 0.5625 21.25C0.1875 21.25 0 21.0833 0 20.75C0 20.6875 0.03125 20.4792 0.09375 20.125C0.177083 19.7708 0.28125 19.1875 0.40625 18.375C0.53125 17.5625 0.635417 16.625 0.71875 15.5625C0.760417 15.1042 1 14.875 1.4375 14.875C1.77083 14.875 1.96875 14.9688 2.03125 15.1562C2.11458 15.3438 2.20833 15.8646 2.3125 16.7188C2.33333 16.9896 2.35417 17.25 2.375 17.5C2.39583 17.75 2.40625 17.9271 2.40625 18.0312C2.42708 18.1354 2.4375 18.2292 2.4375 18.3125C2.4375 18.3958 2.45833 18.4792 2.5 18.5625C2.54167 18.625 2.57292 18.6771 2.59375 18.7188C2.61458 18.7604 2.6875 18.8646 2.8125 19.0312C2.9375 19.1771 3.05208 19.3125 3.15625 19.4375C4.21875 20.8542 5.59375 21.5625 7.28125 21.5625C8.55208 21.5625 9.64583 21.1354 10.5625 20.2812C11.4792 19.4271 11.9375 18.375 11.9375 17.125C11.9375 15.6875 11.3125 14.5104 10.0625 13.5938C9.35417 13.0729 8.28125 12.6458 6.84375 12.3125C5.40625 11.9583 4.46875 11.6875 4.03125 11.5C2.78125 11 1.83333 10.2917 1.1875 9.375C0.541667 8.4375 0.21875 7.41667 0.21875 6.3125ZM17.1938 16.2812C17.1938 14.1354 17.8708 12.3854 19.225 11.0312C20.6 9.67708 22.225 9 24.1 9C26.0167 9 27.6104 9.6875 28.8813 11.0625C30.1521 12.4167 30.7875 14.1562 30.7875 16.2812C30.7875 18.4688 30.1208 20.2083 28.7875 21.5C27.475 22.7708 25.8708 23.4062 23.975 23.4062C21.975 23.4062 20.3396 22.7188 19.0688 21.3438C17.8188 19.9688 17.1938 18.2812 17.1938 16.2812ZM20.8813 20.25C21.6938 21.3125 22.7563 21.8438 24.0688 21.8438C25.3813 21.8438 26.4646 21.3125 27.3188 20.25C28.1729 19.1667 28.6 17.8854 28.6 16.4062C28.6 14.7396 28.1208 13.3438 27.1625 12.2188C26.225 11.0729 25.1313 10.5 23.8813 10.5C22.8396 10.5 21.8708 10.9583 20.975 11.875C20.1 12.7917 19.6625 14.2083 19.6625 16.125C19.6625 17.7917 20.0688 19.1667 20.8813 20.25ZM37.575 10.1875C37.575 10.3125 37.6271 10.375 37.7313 10.375C37.7729 10.375 37.9708 10.2708 38.325 10.0625C38.6792 9.83333 39.1896 9.61458 39.8563 9.40625C40.5438 9.17708 41.2833 9.0625 42.075 9.0625C43.95 9.0625 45.45 9.71875 46.575 11.0312C47.7208 12.3229 48.2938 14.0208 48.2938 16.125C48.2938 16.9375 48.2 17.7292 48.0125 18.5C47.825 19.25 47.3875 20.0521 46.7 20.9062C46.0333 21.7396 45.1479 22.3646 44.0438 22.7812C42.9188 23.1979 41.7313 23.4062 40.4813 23.4062C39.9188 23.4062 39.325 23.3021 38.7 23.0938C38.075 22.9062 37.6271 22.8125 37.3563 22.8125C36.9813 22.8125 36.6479 22.9271 36.3563 23.1562C36.0646 23.3854 35.8667 23.5 35.7625 23.5C35.4292 23.5 35.2625 23.1771 35.2625 22.5312C35.2625 21.2812 35.2729 18.1667 35.2938 13.1875C35.3354 8.1875 35.3563 5.0625 35.3563 3.8125C35.3563 3.52083 35.2208 3.28125 34.95 3.09375C34.8042 3.01042 34.6583 2.92708 34.5125 2.84375C34.3667 2.73958 34.2417 2.66667 34.1375 2.625C34.0542 2.5625 33.9604 2.5 33.8563 2.4375C33.7521 2.375 33.6688 2.32292 33.6063 2.28125C33.5646 2.23958 33.5125 2.19792 33.45 2.15625C33.3875 2.11458 33.3354 2.08333 33.2938 2.0625C33.2729 2.04167 33.2521 2.02083 33.2313 2C33.2104 1.95833 33.1896 1.92708 33.1688 1.90625C33.1688 1.86458 33.1688 1.83333 33.1688 1.8125C33.1688 1.64583 33.3042 1.51042 33.575 1.40625C35.9292 0.46875 37.1479 0 37.2313 0C37.5229 0.0416667 37.6688 0.25 37.6688 0.625C37.6688 1.33333 37.6479 3.04167 37.6063 5.75C37.5854 8.45833 37.575 9.9375 37.575 10.1875ZM46.2938 16.6562C46.2938 14.9271 45.7625 13.5104 44.7 12.4062C43.6375 11.3021 42.3875 10.75 40.95 10.75C40.2 10.75 39.4292 10.9271 38.6375 11.2812C37.8667 11.6354 37.4813 11.9792 37.4813 12.3125V20.5C37.4813 20.5208 37.4708 20.5625 37.45 20.625C37.45 20.6667 37.45 20.6979 37.45 20.7188C37.45 21.1146 37.6063 21.375 37.9188 21.5C38.9188 21.8958 39.8979 22.0938 40.8563 22.0938C42.4813 22.0938 43.7938 21.5938 44.7938 20.5938C45.7938 19.5729 46.2938 18.2604 46.2938 16.6562ZM54.8 10.75C54.8208 10.75 55.05 10.6042 55.4875 10.3125C55.925 10 56.4146 9.66667 56.9562 9.3125C57.4979 8.95833 57.8937 8.73958 58.1437 8.65625C58.3937 8.57292 58.7062 8.53125 59.0812 8.53125C59.6646 8.53125 60.2271 8.66667 60.7687 8.9375C61.3104 9.1875 61.5812 9.52083 61.5812 9.9375V9.96875C61.5812 10.0938 61.5396 10.2188 61.4562 10.3438C61.3729 10.4688 61.3 10.5625 61.2375 10.625C61.175 10.6875 61.0708 10.7812 60.925 10.9062L60.7062 11.0938C60.6854 11.0938 60.5708 11.1771 60.3625 11.3438C60.175 11.4896 60.0083 11.5938 59.8625 11.6562C59.7167 11.7188 59.5604 11.75 59.3937 11.75C59.1437 11.75 58.8521 11.6146 58.5187 11.3438C58.2062 11.0729 57.8625 10.9375 57.4875 10.9375C57.0292 10.9375 56.5396 11.1042 56.0187 11.4375C55.4979 11.7708 55.1646 12.0417 55.0187 12.25C54.9354 12.375 54.8937 12.5729 54.8937 12.8438V20.5V20.625C54.8937 21.2292 55.1542 21.5521 55.675 21.5938C55.8833 21.6146 56.1646 21.6354 56.5187 21.6562C57.1646 21.6979 57.5708 21.7604 57.7375 21.8438C57.925 21.9062 58.0187 22.0833 58.0187 22.375C58.0187 22.7917 57.8729 23 57.5812 23C57.5604 23 57.4875 22.9896 57.3625 22.9688C57.2583 22.9688 57.1021 22.9583 56.8937 22.9375C56.6854 22.9167 56.4562 22.8958 56.2062 22.875C55.9562 22.8542 55.6542 22.8333 55.3 22.8125C54.9667 22.8125 54.6437 22.8125 54.3312 22.8125C53.9979 22.8125 53.6646 22.8125 53.3312 22.8125C52.9979 22.8333 52.6958 22.8542 52.425 22.875C52.175 22.8958 51.9458 22.9167 51.7375 22.9375C51.55 22.9583 51.3937 22.9688 51.2687 22.9688C51.1646 22.9896 51.1021 23 51.0812 23C50.7271 23 50.55 22.8229 50.55 22.4688C50.55 22.2812 50.5917 22.1458 50.675 22.0625C50.7583 21.9583 50.8417 21.8958 50.925 21.875C51.0083 21.8333 51.1646 21.8021 51.3937 21.7812C51.6437 21.7396 51.8417 21.6979 51.9875 21.6562C52.3833 21.5729 52.5812 21.3229 52.5812 20.9062V12.4062C52.5812 12.2812 52.5708 12.1875 52.55 12.125C52.5292 12.0417 52.4667 11.9583 52.3625 11.875C52.2792 11.7708 52.1854 11.6875 52.0812 11.625C51.9979 11.5625 51.8208 11.4375 51.55 11.25C51.2792 11.0625 51.0292 10.8854 50.8 10.7188C50.7375 10.6562 50.6958 10.5833 50.675 10.5C50.675 10.4167 51.1021 10.1771 51.9562 9.78125C52.7271 9.40625 53.425 9.0625 54.05 8.75C54.0708 8.75 54.1021 8.73958 54.1437 8.71875C54.2271 8.67708 54.2896 8.65625 54.3312 8.65625C54.5812 8.65625 54.7062 8.875 54.7062 9.3125V10.5938C54.7062 10.6979 54.7375 10.75 54.8 10.75ZM63.9313 16.2188C63.9313 14.0521 64.5042 12.3125 65.65 11C66.7958 9.6875 68.1917 9.03125 69.8375 9.03125C70.9 9.03125 71.9208 9.32292 72.9 9.90625C73.8792 10.4896 74.6917 11.2188 75.3375 12.0938C75.5042 12.3021 75.5875 12.5312 75.5875 12.7812V12.8438C75.5875 13.0312 75.5354 13.1979 75.4313 13.3438C75.3271 13.4896 75.1604 13.625 74.9313 13.75C74.7021 13.8542 74.5042 13.9375 74.3375 14C74.1708 14.0625 73.9208 14.1458 73.5875 14.25C73.275 14.3542 73.0771 14.4167 72.9938 14.4375C68.6396 15.9375 66.4104 16.7188 66.3063 16.7812C66.2229 16.8229 66.1813 16.8854 66.1813 16.9688C66.1813 17.0938 66.2125 17.3021 66.275 17.5938C66.3375 17.8854 66.4729 18.2708 66.6813 18.75C66.9104 19.2292 67.1813 19.6771 67.4938 20.0938C67.8271 20.4896 68.2958 20.8438 68.9 21.1562C69.5042 21.4479 70.1813 21.5938 70.9313 21.5938C72.3896 21.5938 73.6604 21.0729 74.7438 20.0312C75.0354 19.7396 75.275 19.5938 75.4625 19.5938C75.8167 19.5938 75.9938 19.75 75.9938 20.0625C75.9938 20.1875 75.9104 20.3542 75.7438 20.5625C75.0771 21.4375 74.2438 22.1354 73.2438 22.6562C72.2438 23.1562 71.1917 23.4062 70.0875 23.4062C69.3792 23.4062 68.6813 23.2812 67.9938 23.0312C67.3271 22.7812 66.6708 22.3958 66.025 21.875C65.4 21.3542 64.8896 20.6042 64.4938 19.625C64.1188 18.6458 63.9313 17.5104 63.9313 16.2188ZM72.4938 12.9062C72.4938 12.6354 72.1292 12.2188 71.4 11.6562C70.6708 11.0729 69.9104 10.7812 69.1188 10.7812C68.1813 10.7812 67.4313 11.1875 66.8688 12C66.3271 12.8125 66.0563 13.9271 66.0563 15.3438C66.0563 15.5104 66.1083 15.5938 66.2125 15.5938C66.2542 15.5938 67.2438 15.2188 69.1813 14.4688C71.1396 13.6979 72.15 13.3021 72.2125 13.2812C72.4 13.1771 72.4938 13.0521 72.4938 12.9062ZM92.0062 10.7188C92.0271 10.7188 92.1937 10.6042 92.5062 10.375C92.8187 10.125 93.2458 9.88542 93.7875 9.65625C94.35 9.42708 94.9125 9.3125 95.475 9.3125C95.7667 9.3125 96.0479 9.34375 96.3187 9.40625C96.5896 9.46875 96.8396 9.55208 97.0687 9.65625C97.2979 9.76042 97.5062 9.875 97.6937 10C97.9021 10.125 98.0792 10.25 98.225 10.375C98.3708 10.5 98.4958 10.6146 98.6 10.7188C98.7042 10.8021 98.7875 10.875 98.85 10.9375L98.9437 11.0625C98.9646 11.0833 99.0062 11.0938 99.0687 11.0938C99.1312 11.0938 99.1833 11.0833 99.225 11.0625C99.2667 11.0417 99.3083 11.0104 99.35 10.9688C99.4125 10.9062 99.5375 10.8125 99.725 10.6875C99.9125 10.5625 100.142 10.4167 100.412 10.25C101.475 9.625 102.506 9.3125 103.506 9.3125C104.444 9.3125 105.308 9.59375 106.1 10.1562C106.892 10.6979 107.465 11.5729 107.819 12.7812C108.069 13.6771 108.194 14.9271 108.194 16.5312V20.5938C108.194 20.7396 108.194 20.8646 108.194 20.9688C108.215 21.0729 108.246 21.1667 108.287 21.25C108.35 21.3125 108.392 21.3646 108.412 21.4062C108.433 21.4479 108.496 21.4896 108.6 21.5312C108.725 21.5729 108.808 21.6042 108.85 21.625C108.912 21.625 109.048 21.6458 109.256 21.6875C109.465 21.7292 109.621 21.7604 109.725 21.7812C110.017 21.8229 110.162 22.0208 110.162 22.375C110.162 22.7917 110.006 23 109.694 23C109.652 23 109.517 22.9792 109.287 22.9375C109.058 22.9167 108.735 22.8854 108.319 22.8438C107.902 22.8229 107.465 22.8125 107.006 22.8125C106.527 22.8125 106.079 22.8229 105.662 22.8438C105.267 22.8854 104.944 22.9167 104.694 22.9375C104.465 22.9792 104.329 23 104.287 23C104.162 23 104.037 22.9583 103.912 22.875C103.808 22.7917 103.756 22.6562 103.756 22.4688C103.756 22.1771 103.819 22 103.944 21.9375C104.09 21.875 104.527 21.7708 105.256 21.625C105.694 21.5625 105.912 21.2708 105.912 20.75V16.3125C105.912 13.9792 105.475 12.4271 104.6 11.6562C103.996 11.1771 103.329 10.9375 102.6 10.9375C101.954 10.9375 101.308 11.1146 100.662 11.4688C100.017 11.8229 99.6937 12.1354 99.6937 12.4062L99.725 12.5C99.725 12.5625 99.7354 12.6562 99.7562 12.7812C99.7771 12.9062 99.7979 13.0521 99.8187 13.2188C99.8396 13.3854 99.85 13.5938 99.85 13.8438C99.8708 14.0729 99.8812 14.3125 99.8812 14.5625V20.7188C99.8812 20.7396 99.8708 20.7812 99.85 20.8438C99.85 20.9062 99.85 20.9583 99.85 21V21.0312C99.85 21.3854 100.215 21.5938 100.944 21.6562C101.131 21.6771 101.287 21.6979 101.412 21.7188C101.829 21.7812 102.037 21.9896 102.037 22.3438C102.037 22.7812 101.902 23 101.631 23C101.61 23 101.537 22.9896 101.412 22.9688C101.308 22.9688 101.162 22.9583 100.975 22.9375C100.787 22.9167 100.579 22.8958 100.35 22.875C100.121 22.8542 99.85 22.8333 99.5375 22.8125C99.225 22.8125 98.9229 22.8125 98.6312 22.8125C98.3396 22.8125 98.0375 22.8125 97.725 22.8125C97.4125 22.8333 97.1417 22.8542 96.9125 22.875C96.6833 22.8958 96.475 22.9167 96.2875 22.9375C96.1 22.9583 95.9542 22.9792 95.85 23H95.6625C95.3708 23 95.225 22.7708 95.225 22.3125C95.225 22.0208 95.6208 21.8229 96.4125 21.7188C96.6417 21.6771 96.8187 21.6458 96.9437 21.625C97.2979 21.5625 97.5271 21.4479 97.6312 21.2812C97.7354 21.1146 97.7875 20.8229 97.7875 20.4062V14.5C97.7875 13.1667 97.4437 12.2396 96.7562 11.7188C96.0687 11.1979 95.3187 10.9375 94.5062 10.9375C93.9021 10.9375 93.3812 11.0833 92.9437 11.375C92.5062 11.6458 92.2146 11.9167 92.0687 12.1875C91.9854 12.3958 91.9437 12.6771 91.9437 13.0312V20.7188C91.9437 20.8229 91.9437 20.9167 91.9437 21C91.9646 21.0625 91.975 21.125 91.975 21.1875C91.9958 21.2292 92.0167 21.2812 92.0375 21.3438C92.0792 21.3854 92.1104 21.4271 92.1312 21.4688C92.1521 21.4896 92.1937 21.5104 92.2562 21.5312C92.3396 21.5521 92.4021 21.5729 92.4437 21.5938C92.4854 21.6146 92.5583 21.6354 92.6625 21.6562C92.7875 21.6771 92.8812 21.6979 92.9437 21.7188C93.0062 21.7188 93.1104 21.7292 93.2562 21.75C93.4229 21.7708 93.5583 21.7917 93.6625 21.8125C93.9542 21.8542 94.1 22.0833 94.1 22.5C94.1 22.8333 93.9646 23 93.6937 23L93.2875 22.9375C93.0375 22.9167 92.6937 22.8854 92.2562 22.8438C91.8396 22.8229 91.4125 22.8125 90.975 22.8125C90.5583 22.8125 90.1729 22.8229 89.8187 22.8438C89.4646 22.8646 89.1833 22.8854 88.975 22.9062C88.7875 22.9271 88.6729 22.9375 88.6312 22.9375C88.3396 22.9375 88.1937 22.7292 88.1937 22.3125C88.1937 22.0833 88.2771 21.9271 88.4437 21.8438C88.6312 21.7604 88.8292 21.7188 89.0375 21.7188C89.2458 21.7188 89.4437 21.6562 89.6312 21.5312C89.8396 21.4062 89.9542 21.1979 89.975 20.9062V12.9688C89.975 12.6979 89.9229 12.5 89.8187 12.375C89.7354 12.25 89.475 12.0208 89.0375 11.6875C88.8917 11.5833 88.7771 11.5 88.6937 11.4375C88.5062 11.3125 88.4125 11.1875 88.4125 11.0625C88.4125 10.9583 88.4646 10.8646 88.5687 10.7812C88.6729 10.6771 88.9854 10.4688 89.5062 10.1562C90.0687 9.80208 90.5687 9.48958 91.0062 9.21875C91.3604 9.03125 91.5583 8.9375 91.6 8.9375C91.7875 8.9375 91.8812 9.0625 91.8812 9.3125V10.5312C91.8812 10.6562 91.9229 10.7188 92.0062 10.7188ZM115.2 18.9375C115.2 17.8542 115.2 16.8438 115.2 15.9062C115.2 14.9688 115.2 14.2396 115.2 13.7188C115.221 13.1771 115.231 12.8542 115.231 12.75C115.231 12.5208 115.148 12.3646 114.981 12.2812C114.835 12.1771 114.2 11.8958 113.075 11.4375C112.804 11.3333 112.669 11.1979 112.669 11.0312C112.669 10.9688 112.679 10.9062 112.7 10.8438C112.742 10.7812 112.794 10.7292 112.856 10.6875C112.94 10.6458 113.012 10.6146 113.075 10.5938C113.137 10.5521 113.221 10.5104 113.325 10.4688C113.429 10.4271 113.502 10.3958 113.544 10.375C115.877 9.25 117.054 8.6875 117.075 8.6875H117.106C117.398 8.6875 117.544 8.86458 117.544 9.21875L117.512 10.25C117.471 10.9375 117.429 11.8646 117.387 13.0312C117.367 14.1771 117.356 15.3229 117.356 16.4688V17.5312C117.356 19.5104 117.387 20.6771 117.45 21.0312C117.512 21.3854 117.721 21.5833 118.075 21.625C118.7 21.7083 119.096 21.7812 119.262 21.8438C119.429 21.9062 119.512 22.0625 119.512 22.3125C119.512 22.7708 119.387 23 119.137 23C119.117 23 119.054 22.9896 118.95 22.9688C118.846 22.9688 118.7 22.9583 118.512 22.9375C118.325 22.9167 118.117 22.8958 117.887 22.875C117.658 22.8542 117.387 22.8333 117.075 22.8125C116.783 22.8125 116.492 22.8125 116.2 22.8125C115.908 22.8125 115.606 22.8125 115.294 22.8125C114.981 22.8333 114.71 22.8542 114.481 22.875C114.273 22.8958 114.075 22.9167 113.887 22.9375C113.7 22.9583 113.554 22.9688 113.45 22.9688C113.346 22.9896 113.283 23 113.262 23C112.929 23 112.762 22.8229 112.762 22.4688C112.762 22.1146 112.825 21.9062 112.95 21.8438C113.096 21.7812 113.565 21.6979 114.356 21.5938C114.731 21.5312 114.96 21.4167 115.044 21.25C115.148 21.0625 115.2 20.7917 115.2 20.4375V18.9375ZM115.512 3.03125C115.512 2.61458 115.669 2.26042 115.981 1.96875C116.294 1.67708 116.658 1.53125 117.075 1.53125C117.492 1.53125 117.846 1.67708 118.137 1.96875C118.45 2.26042 118.606 2.60417 118.606 3C118.606 3.4375 118.45 3.80208 118.137 4.09375C117.846 4.38542 117.481 4.53125 117.044 4.53125C116.606 4.53125 116.242 4.39583 115.95 4.125C115.658 3.83333 115.512 3.46875 115.512 3.03125ZM126.081 10.7188C126.102 10.7188 126.269 10.6042 126.581 10.375C126.894 10.125 127.321 9.88542 127.863 9.65625C128.425 9.42708 128.988 9.3125 129.55 9.3125C129.842 9.3125 130.123 9.34375 130.394 9.40625C130.665 9.46875 130.915 9.55208 131.144 9.65625C131.373 9.76042 131.581 9.875 131.769 10C131.977 10.125 132.154 10.25 132.3 10.375C132.446 10.5 132.571 10.6146 132.675 10.7188C132.779 10.8021 132.863 10.875 132.925 10.9375L133.019 11.0625C133.04 11.0833 133.081 11.0938 133.144 11.0938C133.206 11.0938 133.258 11.0833 133.3 11.0625C133.342 11.0417 133.383 11.0104 133.425 10.9688C133.488 10.9062 133.613 10.8125 133.8 10.6875C133.988 10.5625 134.217 10.4167 134.488 10.25C135.55 9.625 136.581 9.3125 137.581 9.3125C138.519 9.3125 139.383 9.59375 140.175 10.1562C140.967 10.6979 141.54 11.5729 141.894 12.7812C142.144 13.6771 142.269 14.9271 142.269 16.5312V20.5938C142.269 20.7396 142.269 20.8646 142.269 20.9688C142.29 21.0729 142.321 21.1667 142.363 21.25C142.425 21.3125 142.467 21.3646 142.488 21.4062C142.508 21.4479 142.571 21.4896 142.675 21.5312C142.8 21.5729 142.883 21.6042 142.925 21.625C142.988 21.625 143.123 21.6458 143.331 21.6875C143.54 21.7292 143.696 21.7604 143.8 21.7812C144.092 21.8229 144.238 22.0208 144.238 22.375C144.238 22.7917 144.081 23 143.769 23C143.727 23 143.592 22.9792 143.363 22.9375C143.133 22.9167 142.81 22.8854 142.394 22.8438C141.977 22.8229 141.54 22.8125 141.081 22.8125C140.602 22.8125 140.154 22.8229 139.738 22.8438C139.342 22.8854 139.019 22.9167 138.769 22.9375C138.54 22.9792 138.404 23 138.363 23C138.238 23 138.113 22.9583 137.988 22.875C137.883 22.7917 137.831 22.6562 137.831 22.4688C137.831 22.1771 137.894 22 138.019 21.9375C138.165 21.875 138.602 21.7708 139.331 21.625C139.769 21.5625 139.988 21.2708 139.988 20.75V16.3125C139.988 13.9792 139.55 12.4271 138.675 11.6562C138.071 11.1771 137.404 10.9375 136.675 10.9375C136.029 10.9375 135.383 11.1146 134.738 11.4688C134.092 11.8229 133.769 12.1354 133.769 12.4062L133.8 12.5C133.8 12.5625 133.81 12.6562 133.831 12.7812C133.852 12.9062 133.873 13.0521 133.894 13.2188C133.915 13.3854 133.925 13.5938 133.925 13.8438C133.946 14.0729 133.956 14.3125 133.956 14.5625V20.7188C133.956 20.7396 133.946 20.7812 133.925 20.8438C133.925 20.9062 133.925 20.9583 133.925 21V21.0312C133.925 21.3854 134.29 21.5938 135.019 21.6562C135.206 21.6771 135.363 21.6979 135.488 21.7188C135.904 21.7812 136.113 21.9896 136.113 22.3438C136.113 22.7812 135.977 23 135.706 23C135.685 23 135.613 22.9896 135.488 22.9688C135.383 22.9688 135.238 22.9583 135.05 22.9375C134.863 22.9167 134.654 22.8958 134.425 22.875C134.196 22.8542 133.925 22.8333 133.613 22.8125C133.3 22.8125 132.998 22.8125 132.706 22.8125C132.415 22.8125 132.113 22.8125 131.8 22.8125C131.488 22.8333 131.217 22.8542 130.988 22.875C130.758 22.8958 130.55 22.9167 130.363 22.9375C130.175 22.9583 130.029 22.9792 129.925 23H129.738C129.446 23 129.3 22.7708 129.3 22.3125C129.3 22.0208 129.696 21.8229 130.488 21.7188C130.717 21.6771 130.894 21.6458 131.019 21.625C131.373 21.5625 131.602 21.4479 131.706 21.2812C131.81 21.1146 131.863 20.8229 131.863 20.4062V14.5C131.863 13.1667 131.519 12.2396 130.831 11.7188C130.144 11.1979 129.394 10.9375 128.581 10.9375C127.977 10.9375 127.456 11.0833 127.019 11.375C126.581 11.6458 126.29 11.9167 126.144 12.1875C126.06 12.3958 126.019 12.6771 126.019 13.0312V20.7188C126.019 20.8229 126.019 20.9167 126.019 21C126.04 21.0625 126.05 21.125 126.05 21.1875C126.071 21.2292 126.092 21.2812 126.113 21.3438C126.154 21.3854 126.185 21.4271 126.206 21.4688C126.227 21.4896 126.269 21.5104 126.331 21.5312C126.415 21.5521 126.477 21.5729 126.519 21.5938C126.56 21.6146 126.633 21.6354 126.738 21.6562C126.863 21.6771 126.956 21.6979 127.019 21.7188C127.081 21.7188 127.185 21.7292 127.331 21.75C127.498 21.7708 127.633 21.7917 127.738 21.8125C128.029 21.8542 128.175 22.0833 128.175 22.5C128.175 22.8333 128.04 23 127.769 23L127.363 22.9375C127.113 22.9167 126.769 22.8854 126.331 22.8438C125.915 22.8229 125.488 22.8125 125.05 22.8125C124.633 22.8125 124.248 22.8229 123.894 22.8438C123.54 22.8646 123.258 22.8854 123.05 22.9062C122.863 22.9271 122.748 22.9375 122.706 22.9375C122.415 22.9375 122.269 22.7292 122.269 22.3125C122.269 22.0833 122.352 21.9271 122.519 21.8438C122.706 21.7604 122.904 21.7188 123.113 21.7188C123.321 21.7188 123.519 21.6562 123.706 21.5312C123.915 21.4062 124.029 21.1979 124.05 20.9062V12.9688C124.05 12.6979 123.998 12.5 123.894 12.375C123.81 12.25 123.55 12.0208 123.113 11.6875C122.967 11.5833 122.852 11.5 122.769 11.4375C122.581 11.3125 122.488 11.1875 122.488 11.0625C122.488 10.9583 122.54 10.8646 122.644 10.7812C122.748 10.6771 123.06 10.4688 123.581 10.1562C124.144 9.80208 124.644 9.48958 125.081 9.21875C125.435 9.03125 125.633 8.9375 125.675 8.9375C125.863 8.9375 125.956 9.0625 125.956 9.3125V10.5312C125.956 10.6562 125.998 10.7188 126.081 10.7188Z" fill="#F2F2F2"/>
</svg>
