<svg width="162" height="31" viewBox="0 0 162 31" fill="none" xmlns="http://www.w3.org/2000/svg">
<path d="M15.4375 23.3125L14.8125 23.25C14.4167 23.2292 13.8646 23.1979 13.1562 23.1562C12.4688 23.1354 11.7812 23.125 11.0938 23.125C10.6562 23.125 10.2083 23.125 9.75 23.125C9.3125 23.1458 8.91667 23.1667 8.5625 23.1875C8.22917 23.2083 7.92708 23.2292 7.65625 23.25C7.38542 23.2708 7.16667 23.2812 7 23.2812C6.83333 23.3021 6.73958 23.3125 6.71875 23.3125C6.30208 23.3125 6.09375 23.0417 6.09375 22.5C6.09375 22.1667 6.17708 21.9583 6.34375 21.875C6.53125 21.7917 6.94792 21.7292 7.59375 21.6875C7.94792 21.6667 8.22917 21.6458 8.4375 21.625C8.875 21.5833 9.15625 21.4688 9.28125 21.2812C9.42708 21.0938 9.5 20.8125 9.5 20.4375V4.21875C9.5 4.01042 9.48958 3.85417 9.46875 3.75C9.44792 3.64583 9.36458 3.53125 9.21875 3.40625C9.09375 3.28125 8.90625 3.21875 8.65625 3.21875H3.875C3.47917 3.21875 3.20833 3.27083 3.0625 3.375C2.91667 3.45833 2.78125 3.625 2.65625 3.875C1.78125 5.60417 1.3125 6.51042 1.25 6.59375C1.10417 6.76042 0.927083 6.84375 0.71875 6.84375C0.510417 6.84375 0.333333 6.77083 0.1875 6.625C0.0625 6.45833 0 6.26042 0 6.03125V6C0 5.91667 0.3125 4.44792 0.9375 1.59375C1 1.26042 1.21875 1.09375 1.59375 1.09375H20.25C20.6042 1.09375 20.8229 1.34375 20.9062 1.84375C21.4271 4.55208 21.6875 5.91667 21.6875 5.9375C21.6875 6.125 21.625 6.29167 21.5 6.4375C21.375 6.58333 21.2292 6.65625 21.0625 6.65625C20.8125 6.65625 20.5729 6.44792 20.3438 6.03125C20.2188 5.82292 20.0833 5.59375 19.9375 5.34375C19.7917 5.07292 19.6771 4.875 19.5938 4.75C19.5312 4.60417 19.4479 4.44792 19.3438 4.28125C19.2604 4.09375 19.1875 3.96875 19.125 3.90625C19.0625 3.82292 19 3.73958 18.9375 3.65625C18.875 3.55208 18.8125 3.48958 18.75 3.46875C18.7083 3.42708 18.6562 3.38542 18.5938 3.34375C18.5312 3.30208 18.4583 3.28125 18.375 3.28125C18.3125 3.26042 18.2396 3.25 18.1562 3.25C18.0938 3.22917 18.0104 3.21875 17.9062 3.21875H13.1875C12.9792 3.21875 12.8125 3.27083 12.6875 3.375C12.5833 3.47917 12.5208 3.58333 12.5 3.6875C12.5 3.77083 12.5 3.90625 12.5 4.09375V20.8438C12.5 21.1771 12.5938 21.3854 12.7812 21.4688C12.9896 21.5521 13.5208 21.625 14.375 21.6875C14.8125 21.7292 15.1562 21.7604 15.4062 21.7812C15.6354 21.8021 15.7812 21.875 15.8438 22C15.9271 22.125 15.9688 22.3542 15.9688 22.6875C15.9688 23.1042 15.7917 23.3125 15.4375 23.3125ZM22.7875 16.5312C22.7875 14.3646 23.3604 12.625 24.5063 11.3125C25.6521 10 27.0479 9.34375 28.6938 9.34375C29.7563 9.34375 30.7771 9.63542 31.7563 10.2188C32.7354 10.8021 33.5479 11.5312 34.1938 12.4062C34.3604 12.6146 34.4438 12.8438 34.4438 13.0938V13.1562C34.4438 13.3438 34.3917 13.5104 34.2875 13.6562C34.1833 13.8021 34.0167 13.9375 33.7875 14.0625C33.5583 14.1667 33.3604 14.25 33.1938 14.3125C33.0271 14.375 32.7771 14.4583 32.4438 14.5625C32.1313 14.6667 31.9333 14.7292 31.85 14.75C27.4958 16.25 25.2667 17.0312 25.1625 17.0938C25.0792 17.1354 25.0375 17.1979 25.0375 17.2812C25.0375 17.4062 25.0688 17.6146 25.1313 17.9062C25.1938 18.1979 25.3292 18.5833 25.5375 19.0625C25.7667 19.5417 26.0375 19.9896 26.35 20.4062C26.6833 20.8021 27.1521 21.1562 27.7563 21.4688C28.3604 21.7604 29.0375 21.9062 29.7875 21.9062C31.2458 21.9062 32.5167 21.3854 33.6 20.3438C33.8917 20.0521 34.1313 19.9062 34.3188 19.9062C34.6729 19.9062 34.85 20.0625 34.85 20.375C34.85 20.5 34.7667 20.6667 34.6 20.875C33.9333 21.75 33.1 22.4479 32.1 22.9688C31.1 23.4688 30.0479 23.7188 28.9438 23.7188C28.2354 23.7188 27.5375 23.5938 26.85 23.3438C26.1833 23.0938 25.5271 22.7083 24.8813 22.1875C24.2563 21.6667 23.7458 20.9167 23.35 19.9375C22.975 18.9583 22.7875 17.8229 22.7875 16.5312ZM31.35 13.2188C31.35 12.9479 30.9854 12.5312 30.2563 11.9688C29.5271 11.3854 28.7667 11.0938 27.975 11.0938C27.0375 11.0938 26.2875 11.5 25.725 12.3125C25.1833 13.125 24.9125 14.2396 24.9125 15.6562C24.9125 15.8229 24.9646 15.9062 25.0688 15.9062C25.1104 15.9062 26.1 15.5312 28.0375 14.7812C29.9958 14.0104 31.0063 13.6146 31.0688 13.5938C31.2563 13.4896 31.35 13.3646 31.35 13.2188ZM43.4188 23.6875C41.5854 23.6875 40.0958 23.0417 38.95 21.75C37.825 20.4583 37.2625 18.8125 37.2625 16.8125C37.2625 14.625 37.8979 12.8542 39.1688 11.5C40.4396 10.125 42.0958 9.4375 44.1375 9.4375C45.2625 9.4375 46.2208 9.67708 47.0125 10.1562C47.8042 10.6354 48.2 11.1875 48.2 11.8125C48.2 12.1667 48.075 12.4583 47.825 12.6875C47.575 12.8958 47.2729 13 46.9188 13C46.4604 13 45.8563 12.6875 45.1063 12.0625C44.3771 11.4167 43.6896 11.0938 43.0438 11.0938C42.0646 11.0938 41.2104 11.5833 40.4813 12.5625C39.7521 13.5417 39.3875 14.6979 39.3875 16.0312C39.3875 17.5521 39.8667 18.875 40.825 20C41.8042 21.1042 43.0125 21.6562 44.45 21.6562C45.0125 21.6562 45.5229 21.5729 45.9813 21.4062C46.4604 21.2188 46.8146 21.0208 47.0438 20.8125C47.2938 20.5833 47.5333 20.3854 47.7625 20.2188C48.0125 20.0312 48.2104 19.9375 48.3563 19.9375C48.5021 19.9375 48.6271 19.9896 48.7313 20.0938C48.8354 20.1979 48.8875 20.3229 48.8875 20.4688C48.8875 20.6354 48.825 20.8021 48.7 20.9688C48.1375 21.7396 47.3979 22.3854 46.4813 22.9062C45.5646 23.4271 44.5438 23.6875 43.4188 23.6875ZM55.0187 11.0625C55.0187 11.1458 55.05 11.1875 55.1125 11.1875H55.1437C55.1646 11.1875 55.2375 11.125 55.3625 11C55.5083 10.875 55.7062 10.7188 55.9562 10.5312C56.2062 10.3438 56.4979 10.1562 56.8312 9.96875C57.1646 9.78125 57.5708 9.625 58.05 9.5C58.5292 9.35417 59.0292 9.28125 59.55 9.28125H59.6125C60.05 9.28125 60.4771 9.34375 60.8937 9.46875C61.3312 9.57292 61.7896 9.78125 62.2687 10.0938C62.7687 10.3854 63.1854 10.8542 63.5187 11.5C63.8521 12.1458 64.0604 12.9375 64.1437 13.875C64.1854 14.2292 64.2062 14.7708 64.2062 15.5C64.2062 15.5833 64.2062 15.7917 64.2062 16.125C64.2062 16.4375 64.1958 17.0104 64.175 17.8438C64.175 18.6771 64.175 19.7396 64.175 21.0312V21.0938C64.175 21.1979 64.1854 21.3021 64.2062 21.4062C64.2271 21.4896 64.2375 21.5625 64.2375 21.625C64.2583 21.6667 64.3 21.7188 64.3625 21.7812C64.425 21.8229 64.4667 21.8542 64.4875 21.875C64.5292 21.8958 64.6021 21.9271 64.7062 21.9688C64.8312 21.9896 64.9146 22 64.9562 22C65.0187 22 65.1333 22.0104 65.3 22.0312C65.4875 22.0521 65.6229 22.0729 65.7062 22.0938C66.0187 22.1354 66.175 22.3333 66.175 22.6875C66.175 23.1042 66.0083 23.3125 65.675 23.3125C65.6125 23.3125 65.4667 23.2917 65.2375 23.25C65.0083 23.2292 64.6854 23.1979 64.2687 23.1562C63.8729 23.1354 63.4458 23.125 62.9875 23.125C62.7167 23.125 62.4458 23.125 62.175 23.125C61.9042 23.1458 61.6646 23.1667 61.4562 23.1875C61.2687 23.2083 61.0917 23.2292 60.925 23.25C60.7583 23.2708 60.6229 23.2917 60.5187 23.3125H60.3625C60.0708 23.3125 59.925 23.1042 59.925 22.6875C59.925 22.4583 59.9875 22.3125 60.1125 22.25C60.2375 22.1875 60.5708 22.1146 61.1125 22.0312C61.3 21.9896 61.4562 21.9583 61.5812 21.9375C61.7896 21.8958 61.925 21.8333 61.9875 21.75C62.0708 21.6458 62.1125 21.4583 62.1125 21.1875V16.2188C62.1125 14.6562 61.9667 13.5 61.675 12.75C61.3625 12.0417 60.8937 11.5521 60.2687 11.2812C59.6437 10.9896 59.05 10.8438 58.4875 10.8438C57.675 10.8438 56.9458 11.0938 56.3 11.5938C55.6542 12.0938 55.2896 12.5312 55.2062 12.9062C55.1646 13.0729 55.1437 13.2188 55.1437 13.3438V20.9062V21C55.1437 21.5417 55.3833 21.8438 55.8625 21.9062C56.8 22.0521 57.3104 22.1667 57.3937 22.25C57.5187 22.3542 57.5812 22.5312 57.5812 22.7812C57.5812 23.1562 57.4458 23.3438 57.175 23.3438C57.1542 23.3438 57.0812 23.3333 56.9562 23.3125C56.8521 23.3125 56.7062 23.3021 56.5187 23.2812C56.3312 23.2604 56.1229 23.2292 55.8937 23.1875C55.6646 23.1667 55.3937 23.1458 55.0812 23.125C54.7896 23.125 54.4979 23.125 54.2062 23.125C53.9146 23.125 53.6229 23.125 53.3312 23.125C53.0396 23.1458 52.7792 23.1667 52.55 23.1875C52.3417 23.2083 52.1542 23.2292 51.9875 23.25C51.8208 23.2708 51.6854 23.2812 51.5812 23.2812C51.4771 23.3021 51.4146 23.3125 51.3937 23.3125C51.0396 23.3125 50.8625 23.125 50.8625 22.75C50.8625 22.4583 50.925 22.2812 51.05 22.2188C51.1958 22.1354 51.55 22.0521 52.1125 21.9688C52.4875 21.9062 52.7167 21.7917 52.8 21.625C52.9042 21.4583 52.9562 21.2083 52.9562 20.875V13.25C52.9562 12.875 52.9042 12.625 52.8 12.5C52.6958 12.3542 52.2687 12 51.5187 11.4375C51.3937 11.3125 51.3312 11.2083 51.3312 11.125V11.0938C51.3312 10.9896 51.4042 10.8958 51.55 10.8125C51.6958 10.7083 52.1437 10.4583 52.8937 10.0625C53.4771 9.75 53.9667 9.48958 54.3625 9.28125C54.4875 9.19792 54.5917 9.15625 54.675 9.15625C54.925 9.15625 55.05 9.3125 55.05 9.625V10.875C55.05 10.8958 55.0396 10.9375 55.0187 11V11.0625ZM68.7438 16.5938C68.7438 14.4479 69.4208 12.6979 70.775 11.3438C72.15 9.98958 73.775 9.3125 75.65 9.3125C77.5667 9.3125 79.1604 10 80.4313 11.375C81.7021 12.7292 82.3375 14.4688 82.3375 16.5938C82.3375 18.7812 81.6708 20.5208 80.3375 21.8125C79.025 23.0833 77.4208 23.7188 75.525 23.7188C73.525 23.7188 71.8896 23.0312 70.6188 21.6562C69.3688 20.2812 68.7438 18.5938 68.7438 16.5938ZM72.4313 20.5625C73.2438 21.625 74.3063 22.1562 75.6188 22.1562C76.9313 22.1562 78.0146 21.625 78.8688 20.5625C79.7229 19.4792 80.15 18.1979 80.15 16.7188C80.15 15.0521 79.6708 13.6562 78.7125 12.5312C77.775 11.3854 76.6813 10.8125 75.4313 10.8125C74.3896 10.8125 73.4208 11.2708 72.525 12.1875C71.65 13.1042 71.2125 14.5208 71.2125 16.4375C71.2125 18.1042 71.6188 19.4792 72.4313 20.5625ZM91.875 22.6875C91.875 23.1042 91.75 23.3125 91.5 23.3125C91.4792 23.3125 91.4062 23.3021 91.2812 23.2812C91.1771 23.2812 91.0312 23.2708 90.8438 23.25C90.6562 23.2292 90.4479 23.2083 90.2188 23.1875C89.9896 23.1667 89.7188 23.1458 89.4062 23.125C89.0938 23.125 88.7917 23.125 88.5 23.125C88.2083 23.125 87.9167 23.125 87.625 23.125C87.3333 23.1458 87.0729 23.1562 86.8438 23.1562C86.6146 23.1771 86.4062 23.1979 86.2188 23.2188C86.0521 23.2396 85.9167 23.25 85.8125 23.25C85.7083 23.2708 85.6458 23.2812 85.625 23.2812C85.3125 23.2812 85.1562 23.0938 85.1562 22.7188V22.625C85.1562 22.3542 85.2188 22.1875 85.3438 22.125C85.4896 22.0417 85.8646 21.9688 86.4688 21.9062C86.8438 21.8646 87.0833 21.75 87.1875 21.5625C87.3125 21.3542 87.375 21.0625 87.375 20.6875V4.40625C87.375 4.34375 87.3646 4.29167 87.3438 4.25C87.3438 4.1875 87.3333 4.13542 87.3125 4.09375C87.2917 4.05208 87.2708 4.02083 87.25 4C87.25 3.95833 87.2188 3.92708 87.1562 3.90625C87.1146 3.86458 87.0729 3.83333 87.0312 3.8125C87.0104 3.79167 86.9479 3.76042 86.8438 3.71875C86.7604 3.65625 86.6979 3.61458 86.6562 3.59375C86.4479 3.46875 86.2188 3.34375 85.9688 3.21875C85.7396 3.07292 85.5729 2.96875 85.4688 2.90625C85.3854 2.84375 85.2917 2.78125 85.1875 2.71875C85.0833 2.63542 85.0104 2.57292 84.9688 2.53125C84.9479 2.46875 84.9375 2.40625 84.9375 2.34375V2.3125C84.9375 2.20833 85.3333 1.94792 86.125 1.53125C87.1042 1.05208 88.0208 0.583333 88.875 0.125C89 0.0416667 89.1354 0 89.2812 0C89.5729 0 89.7188 0.197917 89.7188 0.59375V20.8438C89.7188 20.9688 89.7188 21.0729 89.7188 21.1562C89.7396 21.2396 89.7604 21.3229 89.7812 21.4062C89.8021 21.4688 89.8229 21.5208 89.8438 21.5625C89.8646 21.6042 89.9062 21.6458 89.9688 21.6875C90.0521 21.7292 90.1042 21.7604 90.125 21.7812C90.1667 21.8021 90.2396 21.8333 90.3438 21.875C90.4688 21.8958 90.5521 21.9167 90.5938 21.9375C90.6562 21.9375 90.7708 21.9479 90.9375 21.9688C91.125 21.9896 91.2604 22.0104 91.3438 22.0312C91.6979 22.0938 91.875 22.3125 91.875 22.6875ZM94.5062 16.5938C94.5062 14.4479 95.1833 12.6979 96.5375 11.3438C97.9125 9.98958 99.5375 9.3125 101.412 9.3125C103.329 9.3125 104.923 10 106.194 11.375C107.465 12.7292 108.1 14.4688 108.1 16.5938C108.1 18.7812 107.433 20.5208 106.1 21.8125C104.787 23.0833 103.183 23.7188 101.287 23.7188C99.2875 23.7188 97.6521 23.0312 96.3812 21.6562C95.1312 20.2812 94.5062 18.5938 94.5062 16.5938ZM98.1937 20.5625C99.0062 21.625 100.069 22.1562 101.381 22.1562C102.694 22.1562 103.777 21.625 104.631 20.5625C105.485 19.4792 105.912 18.1979 105.912 16.7188C105.912 15.0521 105.433 13.6562 104.475 12.5312C103.537 11.3854 102.444 10.8125 101.194 10.8125C100.152 10.8125 99.1833 11.2708 98.2875 12.1875C97.4125 13.1042 96.975 14.5208 96.975 16.4375C96.975 18.1042 97.3812 19.4792 98.1937 20.5625ZM116.325 10.3438C115.512 10.3438 114.846 10.6771 114.325 11.3438C113.804 11.9896 113.544 12.8333 113.544 13.875C113.544 15.1042 113.856 16.1667 114.481 17.0625C115.106 17.9583 115.898 18.4062 116.856 18.4062C117.71 18.4062 118.398 18.0729 118.919 17.4062C119.44 16.7188 119.7 15.875 119.7 14.875C119.7 13.6875 119.377 12.6354 118.731 11.7188C118.106 10.8021 117.304 10.3438 116.325 10.3438ZM113.012 25.9375C113.012 26.875 113.502 27.6354 114.481 28.2188C115.481 28.8021 116.731 29.0938 118.231 29.0938C119.71 29.0938 120.752 28.8542 121.356 28.375C121.981 27.9167 122.294 27.3854 122.294 26.7812C122.294 25.9062 121.867 25.2708 121.012 24.875C120.575 24.6458 120.065 24.4896 119.481 24.4062C118.898 24.3438 118.075 24.2917 117.012 24.25C115.971 24.2292 115.054 24.1771 114.262 24.0938H114.169C114.023 24.0938 113.835 24.2083 113.606 24.4375C113.21 24.8333 113.012 25.3333 113.012 25.9375ZM111.075 14.25C111.075 12.8958 111.565 11.7292 112.544 10.75C113.544 9.77083 114.773 9.28125 116.231 9.28125C117.127 9.28125 117.992 9.46875 118.825 9.84375C119.679 10.2188 120.158 10.4062 120.262 10.4062C120.929 10.4062 121.492 10.0729 121.95 9.40625C122.262 8.90625 122.565 8.65625 122.856 8.65625C123.148 8.65625 123.419 8.80208 123.669 9.09375C123.94 9.36458 124.075 9.65625 124.075 9.96875C124.075 10.3438 123.908 10.6667 123.575 10.9375C123.262 11.2083 122.887 11.4375 122.45 11.625C122.033 11.7917 121.815 11.8854 121.794 11.9062C121.69 12.0104 121.637 12.0938 121.637 12.1562C121.637 12.1979 121.669 12.3021 121.731 12.4688C121.794 12.6354 121.856 12.875 121.919 13.1875C121.981 13.4792 122.012 13.8021 122.012 14.1562C122.012 15.6354 121.492 16.9062 120.45 17.9688C119.429 19.0104 118.179 19.5312 116.7 19.5312C116.283 19.5312 115.887 19.4896 115.512 19.4062C115.137 19.3021 114.908 19.25 114.825 19.25C114.533 19.25 114.221 19.4375 113.887 19.8125C113.554 20.1667 113.387 20.5208 113.387 20.875C113.387 21.4375 113.835 21.8125 114.731 22C115.648 22.1875 116.804 22.3021 118.2 22.3438C119.617 22.3854 120.627 22.5 121.231 22.6875C122.19 22.9583 122.908 23.4167 123.387 24.0625C123.887 24.7292 124.137 25.4479 124.137 26.2188C124.137 26.6979 124.033 27.1771 123.825 27.6562C123.617 28.1354 123.273 28.6042 122.794 29.0625C122.335 29.5208 121.648 29.8958 120.731 30.1875C119.815 30.4792 118.731 30.625 117.481 30.625C115.169 30.625 113.544 30.1979 112.606 29.3438C111.69 28.5104 111.231 27.5938 111.231 26.5938C111.231 26.3854 111.252 26.1771 111.294 25.9688C111.335 25.7812 111.387 25.6042 111.45 25.4375C111.512 25.2917 111.575 25.1458 111.637 25C111.721 24.875 111.804 24.75 111.887 24.625C111.992 24.5208 112.085 24.4271 112.169 24.3438C112.273 24.2604 112.367 24.1875 112.45 24.125C112.533 24.0625 112.606 24 112.669 23.9375C112.731 23.8958 112.783 23.8646 112.825 23.8438L112.887 23.8125C112.929 23.7708 112.95 23.7188 112.95 23.6562C112.95 23.6354 112.846 23.5625 112.637 23.4375C112.45 23.3125 112.252 23.1042 112.044 22.8125C111.856 22.5208 111.762 22.1667 111.762 21.75C111.762 20.7292 112.356 19.7396 113.544 18.7812L113.575 18.75C113.596 18.7292 113.606 18.6979 113.606 18.6562C113.606 18.5729 113.512 18.4792 113.325 18.375C113.137 18.2708 112.877 18.0729 112.544 17.7812C112.231 17.4688 111.94 17.0729 111.669 16.5938C111.273 15.8854 111.075 15.1042 111.075 14.25ZM129.019 19.25C129.019 18.1667 129.019 17.1562 129.019 16.2188C129.019 15.2812 129.019 14.5521 129.019 14.0312C129.04 13.4896 129.05 13.1667 129.05 13.0625C129.05 12.8333 128.967 12.6771 128.8 12.5938C128.654 12.4896 128.019 12.2083 126.894 11.75C126.623 11.6458 126.488 11.5104 126.488 11.3438C126.488 11.2812 126.498 11.2188 126.519 11.1562C126.56 11.0938 126.613 11.0417 126.675 11C126.758 10.9583 126.831 10.9271 126.894 10.9062C126.956 10.8646 127.04 10.8229 127.144 10.7812C127.248 10.7396 127.321 10.7083 127.363 10.6875C129.696 9.5625 130.873 9 130.894 9H130.925C131.217 9 131.363 9.17708 131.363 9.53125L131.331 10.5625C131.29 11.25 131.248 12.1771 131.206 13.3438C131.185 14.4896 131.175 15.6354 131.175 16.7812V17.8438C131.175 19.8229 131.206 20.9896 131.269 21.3438C131.331 21.6979 131.54 21.8958 131.894 21.9375C132.519 22.0208 132.915 22.0938 133.081 22.1562C133.248 22.2188 133.331 22.375 133.331 22.625C133.331 23.0833 133.206 23.3125 132.956 23.3125C132.935 23.3125 132.873 23.3021 132.769 23.2812C132.665 23.2812 132.519 23.2708 132.331 23.25C132.144 23.2292 131.935 23.2083 131.706 23.1875C131.477 23.1667 131.206 23.1458 130.894 23.125C130.602 23.125 130.31 23.125 130.019 23.125C129.727 23.125 129.425 23.125 129.113 23.125C128.8 23.1458 128.529 23.1667 128.3 23.1875C128.092 23.2083 127.894 23.2292 127.706 23.25C127.519 23.2708 127.373 23.2812 127.269 23.2812C127.165 23.3021 127.102 23.3125 127.081 23.3125C126.748 23.3125 126.581 23.1354 126.581 22.7812C126.581 22.4271 126.644 22.2188 126.769 22.1562C126.915 22.0938 127.383 22.0104 128.175 21.9062C128.55 21.8438 128.779 21.7292 128.863 21.5625C128.967 21.375 129.019 21.1042 129.019 20.75V19.25ZM129.331 3.34375C129.331 2.92708 129.488 2.57292 129.8 2.28125C130.113 1.98958 130.477 1.84375 130.894 1.84375C131.31 1.84375 131.665 1.98958 131.956 2.28125C132.269 2.57292 132.425 2.91667 132.425 3.3125C132.425 3.75 132.269 4.11458 131.956 4.40625C131.665 4.69792 131.3 4.84375 130.863 4.84375C130.425 4.84375 130.06 4.70833 129.769 4.4375C129.477 4.14583 129.331 3.78125 129.331 3.34375ZM136.306 12.0938C136.306 11.4688 136.806 10.8438 137.806 10.2188C138.827 9.57292 139.962 9.25 141.212 9.25C141.608 9.25 142.015 9.29167 142.431 9.375C142.848 9.45833 143.317 9.60417 143.837 9.8125C144.379 10.0208 144.827 10.3854 145.181 10.9062C145.556 11.4062 145.785 12.0208 145.869 12.75C145.91 13.25 145.931 13.6354 145.931 13.9062V20.2188C145.931 20.5938 146.004 20.8958 146.15 21.125C146.296 21.3542 146.442 21.5 146.587 21.5625C146.733 21.6042 146.879 21.625 147.025 21.625C147.317 21.625 147.546 21.5417 147.712 21.375C147.879 21.1875 148.004 21.0104 148.087 20.8438C148.192 20.6562 148.306 20.5625 148.431 20.5625C148.619 20.5625 148.712 20.6979 148.712 20.9688C148.712 21.4688 148.483 22.0208 148.025 22.625C147.567 23.2083 146.973 23.5 146.244 23.5C145.973 23.5 145.712 23.4583 145.462 23.375C145.212 23.2917 145.004 23.1875 144.837 23.0625C144.671 22.9167 144.515 22.7812 144.369 22.6562C144.244 22.5312 144.14 22.4167 144.056 22.3125L143.962 22.1875C143.942 22.1875 143.931 22.1875 143.931 22.1875C143.931 22.1667 143.921 22.1562 143.9 22.1562C143.858 22.1562 143.827 22.1771 143.806 22.2188C143.785 22.2604 143.712 22.3438 143.587 22.4688C143.462 22.5938 143.285 22.7292 143.056 22.875C142.119 23.4583 141.129 23.75 140.087 23.75C139.004 23.75 138.119 23.4062 137.431 22.7188C136.765 22.0312 136.431 21.1875 136.431 20.1875V20.1562C136.431 18.9479 136.879 18 137.775 17.3125C138.087 17.0625 138.494 16.8438 138.994 16.6562C139.494 16.4479 139.983 16.2917 140.462 16.1875C140.962 16.0833 141.431 16 141.869 15.9375C142.306 15.8542 142.671 15.8021 142.962 15.7812L143.4 15.75C143.567 15.7083 143.65 15.5625 143.65 15.3125V14.1562C143.65 13.0521 143.4 12.1979 142.9 11.5938C142.379 11.0312 141.754 10.75 141.025 10.75C139.9 10.75 138.983 11.4583 138.275 12.875C138.087 13.125 137.858 13.25 137.587 13.25C137.254 13.25 136.952 13.1458 136.681 12.9375C136.431 12.7292 136.306 12.4479 136.306 12.0938ZM140.837 22C141.317 22 141.765 21.8958 142.181 21.6875C142.619 21.4792 142.921 21.2917 143.087 21.125C143.254 20.9583 143.39 20.8125 143.494 20.6875C143.619 20.5208 143.681 20.2812 143.681 19.9688V19.1875V17.875C143.681 17.4792 143.66 17.2292 143.619 17.125C143.598 17 143.515 16.9375 143.369 16.9375C142.848 16.9375 142.192 17.0208 141.4 17.1875C140.629 17.3542 140.015 17.6562 139.556 18.0938C139.056 18.5104 138.806 19.0938 138.806 19.8438C138.806 20.6354 139.025 21.2188 139.462 21.5938C139.754 21.8646 140.212 22 140.837 22ZM151.5 13.25C151.5 12.25 151.917 11.375 152.75 10.625C153.604 9.85417 154.719 9.46875 156.094 9.46875C156.385 9.46875 156.646 9.48958 156.875 9.53125C157.125 9.55208 157.312 9.57292 157.438 9.59375C157.583 9.61458 157.667 9.625 157.688 9.625C157.771 9.625 157.896 9.57292 158.062 9.46875C158.229 9.36458 158.375 9.3125 158.5 9.3125C158.75 9.3125 158.917 9.51042 159 9.90625C159.062 10.2188 159.146 10.6562 159.25 11.2188C159.354 11.7812 159.438 12.2604 159.5 12.6562C159.583 13.0312 159.625 13.2396 159.625 13.2812C159.625 13.6146 159.375 13.7812 158.875 13.7812C158.667 13.7812 158.51 13.7083 158.406 13.5625C158.323 13.3958 158.24 13.1667 158.156 12.875C158.073 12.5833 157.979 12.3646 157.875 12.2188C157.646 11.9062 157.271 11.625 156.75 11.375C156.25 11.1042 155.75 10.9688 155.25 10.9688C154.688 10.9688 154.208 11.125 153.812 11.4375C153.417 11.75 153.219 12.1562 153.219 12.6562C153.219 13.7188 154.062 14.4896 155.75 14.9688C155.958 15.0312 156.271 15.1146 156.688 15.2188C157.104 15.3021 157.427 15.375 157.656 15.4375C157.885 15.5 158.156 15.5938 158.469 15.7188C158.802 15.8438 159.094 16 159.344 16.1875C159.594 16.375 159.833 16.6042 160.062 16.875C160.708 17.625 161.031 18.4688 161.031 19.4062C161.031 20.5312 160.583 21.5312 159.688 22.4062C158.812 23.2812 157.635 23.7188 156.156 23.7188C155.344 23.7188 154.51 23.5833 153.656 23.3125C152.823 23.0417 152.188 22.6458 151.75 22.125C151.5 21.8542 151.375 21.4896 151.375 21.0312C151.375 20.6979 151.365 20.3229 151.344 19.9062C151.344 19.4896 151.344 19.2292 151.344 19.125C151.344 18.7083 151.375 18.4375 151.438 18.3125C151.521 18.1875 151.677 18.125 151.906 18.125C152.135 18.125 152.281 18.2188 152.344 18.4062C152.406 18.5938 152.448 18.875 152.469 19.25C152.49 19.6042 152.552 19.8958 152.656 20.125C152.844 20.5417 153.281 20.9583 153.969 21.375C154.677 21.7917 155.448 22 156.281 22C157.01 22 157.625 21.8021 158.125 21.4062C158.625 21.0104 158.875 20.5 158.875 19.875C158.875 19.4792 158.781 19.1354 158.594 18.8438C158.427 18.5312 158.156 18.2812 157.781 18.0938C157.406 17.8854 157.104 17.7396 156.875 17.6562C156.646 17.5521 156.281 17.4375 155.781 17.3125L155.031 17.1562C152.677 16.4688 151.5 15.1667 151.5 13.25Z" fill="#F2F2F2"/>
</svg>
